<?xml version="1.0" encoding="UTF-8" standalone="no"?>
<svg width="322px" height="461px" viewBox="0 0 322 461" version="1.1" xmlns="http://www.w3.org/2000/svg" xmlns:xlink="http://www.w3.org/1999/xlink">
    <!-- Generator: Sketch 39.1 (31720) - http://www.bohemiancoding.com/sketch -->
    <title>medal</title>
    <desc>Created with Sketch.</desc>
    <defs></defs>
    <g id="Page-1" stroke="none" stroke-width="1" fill="none" fill-rule="evenodd">
        <g id="medal">
            <g id="Capa_1">
                <g id="Group">
                    <polygon id="Shape" fill="#890000" points="96.72 64.159 226.016 64.159 249.278 0.006 73.461 0.006"></polygon>
                    <path d="M0.702,64.159 L83.159,254.79 C100.89,239.666 122.989,229.575 147.302,226.664 L88.375,64.15 L65.115,0 L0.702,64.159 L0.702,64.159 Z" id="Shape" fill="#B11F1F"></path>
                    <path d="M257.634,0.006 L234.375,64.159 L175.481,226.546 C199.827,229.296 222,239.254 239.825,254.246 L322.029,64.16 L257.634,0.006 L257.634,0.006 Z" id="Shape" fill="#B11F1F"></path>
                    <path d="M161.792,460.731 C224.528,460.731 275.375,409.88 275.375,347.165 C275.375,316.084 262.876,287.963 242.662,267.449 C241.688,266.468 240.642,265.546 239.633,264.588 C238.619,263.639 237.593,262.705 236.568,261.791 C219.147,246.534 197.098,236.452 172.738,234.132 C171.387,234.008 170.001,234.008 168.638,233.923 C167.273,233.847 165.917,233.747 164.54,233.715 C163.624,233.703 162.729,233.578 161.801,233.578 C160.593,233.578 159.425,233.715 158.224,233.763 C156.848,233.791 155.483,233.879 154.114,233.963 C152.758,234.056 151.369,234.056 150.025,234.184 C125.698,236.693 103.731,246.955 86.425,262.352 C85.385,263.27 84.349,264.184 83.354,265.15 C82.342,266.116 81.326,267.082 80.352,268.091 C60.493,288.54 48.214,316.404 48.214,347.165 C48.214,409.881 99.07,460.731 161.792,460.731 L161.792,460.731 Z" id="Shape" fill="#E89A40"></path>
                </g>
            </g>
        </g>
    </g>
</svg>